
      <svg width="992" viewBox="0 0 496 266" xmlns="http://www.w3.org/2000/svg" version="1.1">
        <title>Bronkow material theme</title>
        
        <g class="color-set" transform="translate(0, 0)">
          
      <g>
        <rect class="tone-canvas" x="0" y="0" width="96" height="16" style="fill: #DCEDC8" />
        <g style="fill: black">
          <text class="title" x="4" y="0" text-anchor="start" transform="translate(0, 10.672)">green</text>
        </g>
      </g>
      
      
      <g transform="translate(0, 1)">
        <rect class="tone-canvas" x="0" y="16" width="96" height="16" style="fill: #DCEDC8" />
        <g style="fill: black" transform="translate(0, 26.672)">
          <text class="tone-label" x="4" y="0" text-anchor="start">100</text>
          <text class="tone-label" x="92"   y="0" text-anchor="end">#DCEDC8</text>
        </g>
      </g>
    
      <g transform="translate(0, 17)">
        <rect class="tone-canvas" x="0" y="16" width="96" height="16" style="fill: #AED581" />
        <g style="fill: black" transform="translate(0, 26.672)">
          <text class="tone-label" x="4" y="0" text-anchor="start">300</text>
          <text class="tone-label" x="92"   y="0" text-anchor="end">#AED581</text>
        </g>
      </g>
    
      <g transform="translate(0, 33)">
        <rect class="tone-canvas" x="0" y="16" width="96" height="16" style="fill: #689F38" />
        <g style="fill: white" transform="translate(0, 26.672)">
          <text class="tone-label" x="4" y="0" text-anchor="start">700</text>
          <text class="tone-label" x="92"   y="0" text-anchor="end">#689F38</text>
        </g>
      </g>
    
      <g transform="translate(0, 49)">
        <rect class="tone-canvas" x="0" y="16" width="96" height="16" style="fill: #33691E" />
        <g style="fill: white" transform="translate(0, 26.672)">
          <text class="tone-label" x="4" y="0" text-anchor="start">900</text>
          <text class="tone-label" x="92"   y="0" text-anchor="end">#33691E</text>
        </g>
      </g>
    </g>
        <g class="color-set" transform="translate(100, 0)">
          
      <g>
        <rect class="tone-canvas" x="0" y="0" width="96" height="16" style="fill: #B388FF" />
        <g style="fill: black">
          <text class="title" x="4" y="0" text-anchor="start" transform="translate(0, 10.672)">purple</text>
        </g>
      </g>
      
      
      <g transform="translate(0, 1)">
        <rect class="tone-canvas" x="0" y="16" width="96" height="16" style="fill: #B388FF" />
        <g style="fill: black" transform="translate(0, 26.672)">
          <text class="tone-label" x="4" y="0" text-anchor="start">A100</text>
          <text class="tone-label" x="92"   y="0" text-anchor="end">#B388FF</text>
        </g>
      </g>
    
      <g transform="translate(0, 17)">
        <rect class="tone-canvas" x="0" y="16" width="96" height="16" style="fill: #7C4DFF" />
        <g style="fill: white" transform="translate(0, 26.672)">
          <text class="tone-label" x="4" y="0" text-anchor="start">A200</text>
          <text class="tone-label" x="92"   y="0" text-anchor="end">#7C4DFF</text>
        </g>
      </g>
    
      <g transform="translate(0, 33)">
        <rect class="tone-canvas" x="0" y="16" width="96" height="16" style="fill: #651FFF" />
        <g style="fill: white" transform="translate(0, 26.672)">
          <text class="tone-label" x="4" y="0" text-anchor="start">A400</text>
          <text class="tone-label" x="92"   y="0" text-anchor="end">#651FFF</text>
        </g>
      </g>
    
      <g transform="translate(0, 49)">
        <rect class="tone-canvas" x="0" y="16" width="96" height="16" style="fill: #6200EA" />
        <g style="fill: white" transform="translate(0, 26.672)">
          <text class="tone-label" x="4" y="0" text-anchor="start">A700</text>
          <text class="tone-label" x="92"   y="0" text-anchor="end">#6200EA</text>
        </g>
      </g>
    </g>
        <g class="color-set" transform="translate(200, 0)">
          
      <g>
        <rect class="tone-canvas" x="0" y="0" width="96" height="16" style="fill: #80D8FF" />
        <g style="fill: black">
          <text class="title" x="4" y="0" text-anchor="start" transform="translate(0, 10.672)">blue</text>
        </g>
      </g>
      
      
      <g transform="translate(0, 1)">
        <rect class="tone-canvas" x="0" y="16" width="96" height="16" style="fill: #80D8FF" />
        <g style="fill: black" transform="translate(0, 26.672)">
          <text class="tone-label" x="4" y="0" text-anchor="start">A100</text>
          <text class="tone-label" x="92"   y="0" text-anchor="end">#80D8FF</text>
        </g>
      </g>
    
      <g transform="translate(0, 17)">
        <rect class="tone-canvas" x="0" y="16" width="96" height="16" style="fill: #40C4FF" />
        <g style="fill: white" transform="translate(0, 26.672)">
          <text class="tone-label" x="4" y="0" text-anchor="start">A200</text>
          <text class="tone-label" x="92"   y="0" text-anchor="end">#40C4FF</text>
        </g>
      </g>
    
      <g transform="translate(0, 33)">
        <rect class="tone-canvas" x="0" y="16" width="96" height="16" style="fill: #00B0FF" />
        <g style="fill: white" transform="translate(0, 26.672)">
          <text class="tone-label" x="4" y="0" text-anchor="start">A400</text>
          <text class="tone-label" x="92"   y="0" text-anchor="end">#00B0FF</text>
        </g>
      </g>
    
      <g transform="translate(0, 49)">
        <rect class="tone-canvas" x="0" y="16" width="96" height="16" style="fill: #0091ea" />
        <g style="fill: white" transform="translate(0, 26.672)">
          <text class="tone-label" x="4" y="0" text-anchor="start">A700</text>
          <text class="tone-label" x="92"   y="0" text-anchor="end">#0091ea</text>
        </g>
      </g>
    </g>
        <g class="color-set" transform="translate(300, 0)">
          
      <g>
        <rect class="tone-canvas" x="0" y="0" width="96" height="16" style="fill: #B2EBF2" />
        <g style="fill: black">
          <text class="title" x="4" y="0" text-anchor="start" transform="translate(0, 10.672)">cyan</text>
        </g>
      </g>
      
      
      <g transform="translate(0, 1)">
        <rect class="tone-canvas" x="0" y="16" width="96" height="16" style="fill: #B2EBF2" />
        <g style="fill: black" transform="translate(0, 26.672)">
          <text class="tone-label" x="4" y="0" text-anchor="start">100</text>
          <text class="tone-label" x="92"   y="0" text-anchor="end">#B2EBF2</text>
        </g>
      </g>
    
      <g transform="translate(0, 17)">
        <rect class="tone-canvas" x="0" y="16" width="96" height="16" style="fill: #4DD0E1" />
        <g style="fill: white" transform="translate(0, 26.672)">
          <text class="tone-label" x="4" y="0" text-anchor="start">300</text>
          <text class="tone-label" x="92"   y="0" text-anchor="end">#4DD0E1</text>
        </g>
      </g>
    
      <g transform="translate(0, 33)">
        <rect class="tone-canvas" x="0" y="16" width="96" height="16" style="fill: #00BCD4" />
        <g style="fill: white" transform="translate(0, 26.672)">
          <text class="tone-label" x="4" y="0" text-anchor="start">500</text>
          <text class="tone-label" x="92"   y="0" text-anchor="end">#00BCD4</text>
        </g>
      </g>
    
      <g transform="translate(0, 49)">
        <rect class="tone-canvas" x="0" y="16" width="96" height="16" style="fill: #0097A7" />
        <g style="fill: white" transform="translate(0, 26.672)">
          <text class="tone-label" x="4" y="0" text-anchor="start">700</text>
          <text class="tone-label" x="92"   y="0" text-anchor="end">#0097A7</text>
        </g>
      </g>
    
      <g transform="translate(0, 65)">
        <rect class="tone-canvas" x="0" y="16" width="96" height="16" style="fill: #006064" />
        <g style="fill: white" transform="translate(0, 26.672)">
          <text class="tone-label" x="4" y="0" text-anchor="start">900</text>
          <text class="tone-label" x="92"   y="0" text-anchor="end">#006064</text>
        </g>
      </g>
    </g>
        <g class="color-set" transform="translate(400, 0)">
          
      <g>
        <rect class="tone-canvas" x="0" y="0" width="96" height="16" style="fill: #E57373" />
        <g style="fill: black">
          <text class="title" x="4" y="0" text-anchor="start" transform="translate(0, 10.672)">red</text>
        </g>
      </g>
      
      
      <g transform="translate(0, 1)">
        <rect class="tone-canvas" x="0" y="16" width="96" height="16" style="fill: #E57373" />
        <g style="fill: black" transform="translate(0, 26.672)">
          <text class="tone-label" x="4" y="0" text-anchor="start">300</text>
          <text class="tone-label" x="92"   y="0" text-anchor="end">#E57373</text>
        </g>
      </g>
    
      <g transform="translate(0, 17)">
        <rect class="tone-canvas" x="0" y="16" width="96" height="16" style="fill: #D32F2F" />
        <g style="fill: black" transform="translate(0, 26.672)">
          <text class="tone-label" x="4" y="0" text-anchor="start">700</text>
          <text class="tone-label" x="92"   y="0" text-anchor="end">#D32F2F</text>
        </g>
      </g>
    </g>
        <g class="color-set" transform="translate(0, 137)">
          
      <g>
        <rect class="tone-canvas" x="0" y="0" width="96" height="16" style="fill: #FFE0B2" />
        <g style="fill: black">
          <text class="title" x="4" y="0" text-anchor="start" transform="translate(0, 10.672)">orange</text>
        </g>
      </g>
      
      
      <g transform="translate(0, 1)">
        <rect class="tone-canvas" x="0" y="16" width="96" height="16" style="fill: #FFE0B2" />
        <g style="fill: black" transform="translate(0, 26.672)">
          <text class="tone-label" x="4" y="0" text-anchor="start">100</text>
          <text class="tone-label" x="92"   y="0" text-anchor="end">#FFE0B2</text>
        </g>
      </g>
    
      <g transform="translate(0, 17)">
        <rect class="tone-canvas" x="0" y="16" width="96" height="16" style="fill: #FFB74D" />
        <g style="fill: black" transform="translate(0, 26.672)">
          <text class="tone-label" x="4" y="0" text-anchor="start">300</text>
          <text class="tone-label" x="92"   y="0" text-anchor="end">#FFB74D</text>
        </g>
      </g>
    
      <g transform="translate(0, 33)">
        <rect class="tone-canvas" x="0" y="16" width="96" height="16" style="fill: #F57C00" />
        <g style="fill: black" transform="translate(0, 26.672)">
          <text class="tone-label" x="4" y="0" text-anchor="start">700</text>
          <text class="tone-label" x="92"   y="0" text-anchor="end">#F57C00</text>
        </g>
      </g>
    
      <g transform="translate(0, 49)">
        <rect class="tone-canvas" x="0" y="16" width="96" height="16" style="fill: #E65100" />
        <g style="fill: black" transform="translate(0, 26.672)">
          <text class="tone-label" x="4" y="0" text-anchor="start">900</text>
          <text class="tone-label" x="92"   y="0" text-anchor="end">#E65100</text>
        </g>
      </g>
    </g>
        <g class="color-set" transform="translate(100, 137)">
          
      <g>
        <rect class="tone-canvas" x="0" y="0" width="96" height="16" style="fill: #000000" />
        <g style="fill: white">
          <text class="title" x="4" y="0" text-anchor="start" transform="translate(0, 10.672)">black</text>
        </g>
      </g>
      
      
      <g transform="translate(0, 1)">
        <rect class="tone-canvas" x="0" y="16" width="96" height="16" style="fill: #000000" />
        <g style="fill: white" transform="translate(0, 26.672)">
          <text class="tone-label" x="4" y="0" text-anchor="start">Black</text>
          <text class="tone-label" x="92"   y="0" text-anchor="end">#000000</text>
        </g>
      </g>
    </g>
        <g class="color-set" transform="translate(200, 137)">
          
      <g>
        <rect class="tone-canvas" x="0" y="0" width="96" height="16" style="fill: #eceff1" />
        <g style="fill: black">
          <text class="title" x="4" y="0" text-anchor="start" transform="translate(0, 10.672)">shade</text>
        </g>
      </g>
      
      
      <g transform="translate(0, 1)">
        <rect class="tone-canvas" x="0" y="16" width="96" height="16" style="fill: #eceff1" />
        <g style="fill: black" transform="translate(0, 26.672)">
          <text class="tone-label" x="4" y="0" text-anchor="start">50</text>
          <text class="tone-label" x="92"   y="0" text-anchor="end">#eceff1</text>
        </g>
      </g>
    
      <g transform="translate(0, 17)">
        <rect class="tone-canvas" x="0" y="16" width="96" height="16" style="fill: #cfd8dc" />
        <g style="fill: black" transform="translate(0, 26.672)">
          <text class="tone-label" x="4" y="0" text-anchor="start">100</text>
          <text class="tone-label" x="92"   y="0" text-anchor="end">#cfd8dc</text>
        </g>
      </g>
    
      <g transform="translate(0, 33)">
        <rect class="tone-canvas" x="0" y="16" width="96" height="16" style="fill: #b0bec5" />
        <g style="fill: black" transform="translate(0, 26.672)">
          <text class="tone-label" x="4" y="0" text-anchor="start">200</text>
          <text class="tone-label" x="92"   y="0" text-anchor="end">#b0bec5</text>
        </g>
      </g>
    
      <g transform="translate(0, 49)">
        <rect class="tone-canvas" x="0" y="16" width="96" height="16" style="fill: #37474f" />
        <g style="fill: white" transform="translate(0, 26.672)">
          <text class="tone-label" x="4" y="0" text-anchor="start">800</text>
          <text class="tone-label" x="92"   y="0" text-anchor="end">#37474f</text>
        </g>
      </g>
    
      <g transform="translate(0, 65)">
        <rect class="tone-canvas" x="0" y="16" width="96" height="16" style="fill: #263238" />
        <g style="fill: white" transform="translate(0, 26.672)">
          <text class="tone-label" x="4" y="0" text-anchor="start">900</text>
          <text class="tone-label" x="92"   y="0" text-anchor="end">#263238</text>
        </g>
      </g>
    
      <g transform="translate(0, 81)">
        <rect class="tone-canvas" x="0" y="16" width="96" height="16" style="fill: #212B30" />
        <g style="fill: white" transform="translate(0, 26.672)">
          <text class="tone-label" x="4" y="0" text-anchor="start"></text>
          <text class="tone-label" x="92"   y="0" text-anchor="end">#212B30</text>
        </g>
      </g>
    
      <g transform="translate(0, 97)">
        <rect class="tone-canvas" x="0" y="16" width="96" height="16" style="fill: #1E272C" />
        <g style="fill: white" transform="translate(0, 26.672)">
          <text class="tone-label" x="4" y="0" text-anchor="start"></text>
          <text class="tone-label" x="92"   y="0" text-anchor="end">#1E272C</text>
        </g>
      </g>
    </g>
        <g class="color-set" transform="translate(300, 137)">
          
      <g>
        <rect class="tone-canvas" x="0" y="0" width="96" height="16" style="fill: #fafafa" />
        <g style="fill: black">
          <text class="title" x="4" y="0" text-anchor="start" transform="translate(0, 10.672)">grey</text>
        </g>
      </g>
      
      
      <g transform="translate(0, 1)">
        <rect class="tone-canvas" x="0" y="16" width="96" height="16" style="fill: #fafafa" />
        <g style="fill: black" transform="translate(0, 26.672)">
          <text class="tone-label" x="4" y="0" text-anchor="start">50</text>
          <text class="tone-label" x="92"   y="0" text-anchor="end">#fafafa</text>
        </g>
      </g>
    
      <g transform="translate(0, 17)">
        <rect class="tone-canvas" x="0" y="16" width="96" height="16" style="fill: #f5f5f5" />
        <g style="fill: black" transform="translate(0, 26.672)">
          <text class="tone-label" x="4" y="0" text-anchor="start">100</text>
          <text class="tone-label" x="92"   y="0" text-anchor="end">#f5f5f5</text>
        </g>
      </g>
    
      <g transform="translate(0, 33)">
        <rect class="tone-canvas" x="0" y="16" width="96" height="16" style="fill: #e0e0e0" />
        <g style="fill: black" transform="translate(0, 26.672)">
          <text class="tone-label" x="4" y="0" text-anchor="start">300</text>
          <text class="tone-label" x="92"   y="0" text-anchor="end">#e0e0e0</text>
        </g>
      </g>
    
      <g transform="translate(0, 49)">
        <rect class="tone-canvas" x="0" y="16" width="96" height="16" style="fill: #9E9E9E" />
        <g style="fill: black" transform="translate(0, 26.672)">
          <text class="tone-label" x="4" y="0" text-anchor="start">500</text>
          <text class="tone-label" x="92"   y="0" text-anchor="end">#9E9E9E</text>
        </g>
      </g>
    
      <g transform="translate(0, 65)">
        <rect class="tone-canvas" x="0" y="16" width="96" height="16" style="fill: #616161" />
        <g style="fill: white" transform="translate(0, 26.672)">
          <text class="tone-label" x="4" y="0" text-anchor="start">700</text>
          <text class="tone-label" x="92"   y="0" text-anchor="end">#616161</text>
        </g>
      </g>
    
      <g transform="translate(0, 81)">
        <rect class="tone-canvas" x="0" y="16" width="96" height="16" style="fill: #424242" />
        <g style="fill: white" transform="translate(0, 26.672)">
          <text class="tone-label" x="4" y="0" text-anchor="start">800</text>
          <text class="tone-label" x="92"   y="0" text-anchor="end">#424242</text>
        </g>
      </g>
    
      <g transform="translate(0, 97)">
        <rect class="tone-canvas" x="0" y="16" width="96" height="16" style="fill: #212121" />
        <g style="fill: white" transform="translate(0, 26.672)">
          <text class="tone-label" x="4" y="0" text-anchor="start">900</text>
          <text class="tone-label" x="92"   y="0" text-anchor="end">#212121</text>
        </g>
      </g>
    </g>
        <g class="color-set" transform="translate(400, 137)">
          
      <g>
        <rect class="tone-canvas" x="0" y="0" width="96" height="16" style="fill: #FFFFFF" />
        <g style="fill: black">
          <text class="title" x="4" y="0" text-anchor="start" transform="translate(0, 10.672)">white</text>
        </g>
      </g>
      
      
      <g transform="translate(0, 1)">
        <rect class="tone-canvas" x="0" y="16" width="96" height="16" style="fill: #FFFFFF" />
        <g style="fill: black" transform="translate(0, 26.672)">
          <text class="tone-label" x="4" y="0" text-anchor="start">White</text>
          <text class="tone-label" x="92"   y="0" text-anchor="end">#FFFFFF</text>
        </g>
      </g>
    </g>
        
      <style type="text/css">
      text {
        font-family: Roboto, sans-serif;
        font-size: 6px;
      }
      .title {
        text-transform: capitalize;
      }
      </style>
    
      </svg>
    