
      <svg width="688" viewBox="0 0 688 550" xmlns="http://www.w3.org/2000/svg" version="1.1">
        <title>Bronkow material theme</title>
        
        <g class="color-set" transform="translate(0, 0)">
          
      <g>
        <rect class="tone-canvas" x="0" y="0" width="160" height="32" style="fill: #DCEDC8" />
        <g style="fill: black">
          <text class="tone-label tone-label--header" x="80" y="0" text-anchor="middle" transform="translate(0, 22)">light-green</text>
        </g>
      </g>
      
      
      <g transform="translate(0, 2)">
        <rect class="tone-canvas" x="0" y="32" width="160" height="32" style="fill: #DCEDC8" />
        <g style="fill: black" transform="translate(0, 22)">
          <text class="tone-label" x="8" y="32" text-anchor="start">100</text>
          <text class="tone-label" x="152"   y="32" text-anchor="end">#DCEDC8</text>
        </g>
      </g>
    
      <g transform="translate(0, 34)">
        <rect class="tone-canvas" x="0" y="32" width="160" height="32" style="fill: #AED581" />
        <g style="fill: black" transform="translate(0, 22)">
          <text class="tone-label" x="8" y="32" text-anchor="start">300</text>
          <text class="tone-label" x="152"   y="32" text-anchor="end">#AED581</text>
        </g>
      </g>
    
      <g transform="translate(0, 66)">
        <rect class="tone-canvas" x="0" y="32" width="160" height="32" style="fill: #689F38" />
        <g style="fill: white" transform="translate(0, 22)">
          <text class="tone-label" x="8" y="32" text-anchor="start">700</text>
          <text class="tone-label" x="152"   y="32" text-anchor="end">#689F38</text>
        </g>
      </g>
    
      <g transform="translate(0, 98)">
        <rect class="tone-canvas" x="0" y="32" width="160" height="32" style="fill: #33691E" />
        <g style="fill: white" transform="translate(0, 22)">
          <text class="tone-label" x="8" y="32" text-anchor="start">900</text>
          <text class="tone-label" x="152"   y="32" text-anchor="end">#33691E</text>
        </g>
      </g>
    </g>
        <g class="color-set" transform="translate(176, 0)">
          
      <g>
        <rect class="tone-canvas" x="0" y="0" width="160" height="32" style="fill: #B388FF" />
        <g style="fill: black">
          <text class="tone-label tone-label--header" x="80" y="0" text-anchor="middle" transform="translate(0, 22)">deep-purple</text>
        </g>
      </g>
      
      
      <g transform="translate(0, 2)">
        <rect class="tone-canvas" x="0" y="32" width="160" height="32" style="fill: #B388FF" />
        <g style="fill: black" transform="translate(0, 22)">
          <text class="tone-label" x="8" y="32" text-anchor="start">A100</text>
          <text class="tone-label" x="152"   y="32" text-anchor="end">#B388FF</text>
        </g>
      </g>
    </g>
        <g class="color-set" transform="translate(352, 0)">
          
      <g>
        <rect class="tone-canvas" x="0" y="0" width="160" height="32" style="fill: #80D8FF" />
        <g style="fill: black">
          <text class="tone-label tone-label--header" x="80" y="0" text-anchor="middle" transform="translate(0, 22)">light-blue</text>
        </g>
      </g>
      
      
      <g transform="translate(0, 2)">
        <rect class="tone-canvas" x="0" y="32" width="160" height="32" style="fill: #80D8FF" />
        <g style="fill: black" transform="translate(0, 22)">
          <text class="tone-label" x="8" y="32" text-anchor="start">A100</text>
          <text class="tone-label" x="152"   y="32" text-anchor="end">#80D8FF</text>
        </g>
      </g>
    
      <g transform="translate(0, 34)">
        <rect class="tone-canvas" x="0" y="32" width="160" height="32" style="fill: #40C4FF" />
        <g style="fill: white" transform="translate(0, 22)">
          <text class="tone-label" x="8" y="32" text-anchor="start">A200</text>
          <text class="tone-label" x="152"   y="32" text-anchor="end">#40C4FF</text>
        </g>
      </g>
    
      <g transform="translate(0, 66)">
        <rect class="tone-canvas" x="0" y="32" width="160" height="32" style="fill: #00B0FF" />
        <g style="fill: white" transform="translate(0, 22)">
          <text class="tone-label" x="8" y="32" text-anchor="start">A400</text>
          <text class="tone-label" x="152"   y="32" text-anchor="end">#00B0FF</text>
        </g>
      </g>
    </g>
        <g class="color-set" transform="translate(528, 0)">
          
      <g>
        <rect class="tone-canvas" x="0" y="0" width="160" height="32" style="fill: #B2EBF2" />
        <g style="fill: black">
          <text class="tone-label tone-label--header" x="80" y="0" text-anchor="middle" transform="translate(0, 22)">cyan</text>
        </g>
      </g>
      
      
      <g transform="translate(0, 2)">
        <rect class="tone-canvas" x="0" y="32" width="160" height="32" style="fill: #B2EBF2" />
        <g style="fill: black" transform="translate(0, 22)">
          <text class="tone-label" x="8" y="32" text-anchor="start">100</text>
          <text class="tone-label" x="152"   y="32" text-anchor="end">#B2EBF2</text>
        </g>
      </g>
    
      <g transform="translate(0, 34)">
        <rect class="tone-canvas" x="0" y="32" width="160" height="32" style="fill: #80DEEA" />
        <g style="fill: black" transform="translate(0, 22)">
          <text class="tone-label" x="8" y="32" text-anchor="start">200</text>
          <text class="tone-label" x="152"   y="32" text-anchor="end">#80DEEA</text>
        </g>
      </g>
    
      <g transform="translate(0, 66)">
        <rect class="tone-canvas" x="0" y="32" width="160" height="32" style="fill: #00ACC1" />
        <g style="fill: white" transform="translate(0, 22)">
          <text class="tone-label" x="8" y="32" text-anchor="start">600</text>
          <text class="tone-label" x="152"   y="32" text-anchor="end">#00ACC1</text>
        </g>
      </g>
    
      <g transform="translate(0, 98)">
        <rect class="tone-canvas" x="0" y="32" width="160" height="32" style="fill: #006064" />
        <g style="fill: white" transform="translate(0, 22)">
          <text class="tone-label" x="8" y="32" text-anchor="start">900</text>
          <text class="tone-label" x="152"   y="32" text-anchor="end">#006064</text>
        </g>
      </g>
    </g>
        <g class="color-set" transform="translate(0, 194)">
          
      <g>
        <rect class="tone-canvas" x="0" y="0" width="160" height="32" style="fill: #E57373" />
        <g style="fill: black">
          <text class="tone-label tone-label--header" x="80" y="0" text-anchor="middle" transform="translate(0, 22)">red</text>
        </g>
      </g>
      
      
      <g transform="translate(0, 2)">
        <rect class="tone-canvas" x="0" y="32" width="160" height="32" style="fill: #E57373" />
        <g style="fill: black" transform="translate(0, 22)">
          <text class="tone-label" x="8" y="32" text-anchor="start">300</text>
          <text class="tone-label" x="152"   y="32" text-anchor="end">#E57373</text>
        </g>
      </g>
    
      <g transform="translate(0, 34)">
        <rect class="tone-canvas" x="0" y="32" width="160" height="32" style="fill: #D32F2F" />
        <g style="fill: black" transform="translate(0, 22)">
          <text class="tone-label" x="8" y="32" text-anchor="start">700</text>
          <text class="tone-label" x="152"   y="32" text-anchor="end">#D32F2F</text>
        </g>
      </g>
    </g>
        <g class="color-set" transform="translate(176, 194)">
          
      <g>
        <rect class="tone-canvas" x="0" y="0" width="160" height="32" style="fill: #FFE0B2" />
        <g style="fill: black">
          <text class="tone-label tone-label--header" x="80" y="0" text-anchor="middle" transform="translate(0, 22)">orange</text>
        </g>
      </g>
      
      
      <g transform="translate(0, 2)">
        <rect class="tone-canvas" x="0" y="32" width="160" height="32" style="fill: #FFE0B2" />
        <g style="fill: black" transform="translate(0, 22)">
          <text class="tone-label" x="8" y="32" text-anchor="start">100</text>
          <text class="tone-label" x="152"   y="32" text-anchor="end">#FFE0B2</text>
        </g>
      </g>
    
      <g transform="translate(0, 34)">
        <rect class="tone-canvas" x="0" y="32" width="160" height="32" style="fill: #FFB74D" />
        <g style="fill: black" transform="translate(0, 22)">
          <text class="tone-label" x="8" y="32" text-anchor="start">300</text>
          <text class="tone-label" x="152"   y="32" text-anchor="end">#FFB74D</text>
        </g>
      </g>
    
      <g transform="translate(0, 66)">
        <rect class="tone-canvas" x="0" y="32" width="160" height="32" style="fill: #F57C00" />
        <g style="fill: black" transform="translate(0, 22)">
          <text class="tone-label" x="8" y="32" text-anchor="start">700</text>
          <text class="tone-label" x="152"   y="32" text-anchor="end">#F57C00</text>
        </g>
      </g>
    
      <g transform="translate(0, 98)">
        <rect class="tone-canvas" x="0" y="32" width="160" height="32" style="fill: #E65100" />
        <g style="fill: black" transform="translate(0, 22)">
          <text class="tone-label" x="8" y="32" text-anchor="start">900</text>
          <text class="tone-label" x="152"   y="32" text-anchor="end">#E65100</text>
        </g>
      </g>
    </g>
        <g class="color-set" transform="translate(352, 194)">
          
      <g>
        <rect class="tone-canvas" x="0" y="0" width="160" height="32" style="fill: #000000" />
        <g style="fill: white">
          <text class="tone-label tone-label--header" x="80" y="0" text-anchor="middle" transform="translate(0, 22)">black</text>
        </g>
      </g>
      
      
      <g transform="translate(0, 2)">
        <rect class="tone-canvas" x="0" y="32" width="160" height="32" style="fill: #000000" />
        <g style="fill: white" transform="translate(0, 22)">
          <text class="tone-label" x="8" y="32" text-anchor="start">Black</text>
          <text class="tone-label" x="152"   y="32" text-anchor="end">#000000</text>
        </g>
      </g>
    </g>
        <g class="color-set" transform="translate(528, 194)">
          
      <g>
        <rect class="tone-canvas" x="0" y="0" width="160" height="32" style="fill: #3C4D56" />
        <g style="fill: white">
          <text class="tone-label tone-label--header" x="80" y="0" text-anchor="middle" transform="translate(0, 22)">shade</text>
        </g>
      </g>
      
      
      <g transform="translate(0, 2)">
        <rect class="tone-canvas" x="0" y="32" width="160" height="32" style="fill: #3C4D56" />
        <g style="fill: white" transform="translate(0, 22)">
          <text class="tone-label" x="8" y="32" text-anchor="start"></text>
          <text class="tone-label" x="152"   y="32" text-anchor="end">#3C4D56</text>
        </g>
      </g>
    
      <g transform="translate(0, 34)">
        <rect class="tone-canvas" x="0" y="32" width="160" height="32" style="fill: #263238" />
        <g style="fill: white" transform="translate(0, 22)">
          <text class="tone-label" x="8" y="32" text-anchor="start"></text>
          <text class="tone-label" x="152"   y="32" text-anchor="end">#263238</text>
        </g>
      </g>
    
      <g transform="translate(0, 66)">
        <rect class="tone-canvas" x="0" y="32" width="160" height="32" style="fill: #212B30" />
        <g style="fill: white" transform="translate(0, 22)">
          <text class="tone-label" x="8" y="32" text-anchor="start"></text>
          <text class="tone-label" x="152"   y="32" text-anchor="end">#212B30</text>
        </g>
      </g>
    
      <g transform="translate(0, 98)">
        <rect class="tone-canvas" x="0" y="32" width="160" height="32" style="fill: #1E272C" />
        <g style="fill: white" transform="translate(0, 22)">
          <text class="tone-label" x="8" y="32" text-anchor="start"></text>
          <text class="tone-label" x="152"   y="32" text-anchor="end">#1E272C</text>
        </g>
      </g>
    </g>
        <g class="color-set" transform="translate(0, 388)">
          
      <g>
        <rect class="tone-canvas" x="0" y="0" width="160" height="32" style="fill: #EEEEEE" />
        <g style="fill: black">
          <text class="tone-label tone-label--header" x="80" y="0" text-anchor="middle" transform="translate(0, 22)">grey</text>
        </g>
      </g>
      
      
      <g transform="translate(0, 2)">
        <rect class="tone-canvas" x="0" y="32" width="160" height="32" style="fill: #EEEEEE" />
        <g style="fill: black" transform="translate(0, 22)">
          <text class="tone-label" x="8" y="32" text-anchor="start">200</text>
          <text class="tone-label" x="152"   y="32" text-anchor="end">#EEEEEE</text>
        </g>
      </g>
    
      <g transform="translate(0, 34)">
        <rect class="tone-canvas" x="0" y="32" width="160" height="32" style="fill: #BDBDBD" />
        <g style="fill: black" transform="translate(0, 22)">
          <text class="tone-label" x="8" y="32" text-anchor="start">400</text>
          <text class="tone-label" x="152"   y="32" text-anchor="end">#BDBDBD</text>
        </g>
      </g>
    
      <g transform="translate(0, 66)">
        <rect class="tone-canvas" x="0" y="32" width="160" height="32" style="fill: #616161" />
        <g style="fill: white" transform="translate(0, 22)">
          <text class="tone-label" x="8" y="32" text-anchor="start">700</text>
          <text class="tone-label" x="152"   y="32" text-anchor="end">#616161</text>
        </g>
      </g>
    </g>
        <g class="color-set" transform="translate(176, 388)">
          
      <g>
        <rect class="tone-canvas" x="0" y="0" width="160" height="32" style="fill: #FFFFFF" />
        <g style="fill: black">
          <text class="tone-label tone-label--header" x="80" y="0" text-anchor="middle" transform="translate(0, 22)">white</text>
        </g>
      </g>
      
      
      <g transform="translate(0, 2)">
        <rect class="tone-canvas" x="0" y="32" width="160" height="32" style="fill: #FFFFFF" />
        <g style="fill: black" transform="translate(0, 22)">
          <text class="tone-label" x="8" y="32" text-anchor="start">White</text>
          <text class="tone-label" x="152"   y="32" text-anchor="end">#FFFFFF</text>
        </g>
      </g>
    </g>
        
      <style type="text/css">
      text {
        font-family: sans-serif;
        font-size: 14px;
      }
      .tone-label {
        font-size: .8em;
      }
      .tone-label--header {
      }
      .title {
        text-transform: capitalize;
        font-size: 1em;
        color: black;
      }
      </style>
    
      </svg>
    